# xmcd CD database file
#
# Track frame offsets:
#	150
#	34586
#	55293
#	83231
#	133428
#	148919
#	168233
#	201107
#
# Disc length: 2848 seconds
#
# Revision: 0
# Processed by: cddbd v1.5.2PL0 Copyright (c) Steve Scherf et al.
# Submitted via: CDex 2.09
#
DISCID=740b1e08
DTITLE=Gilad Atzmon and The Orient House Ensemble - The Whistle Blower
DYEAR=2015
DGENRE=Jazz
TTITLE0=Gaza Mon Amour
TTITLE1=Forever
TTITLE2=The Romantic Church
TTITLE3=Let Us Prey
TTITLE4=The Song
TTITLE5=To Be Free
TTITLE6=For Moana
TTITLE7=The Whistle Blower
EXTD=YEAR: 2015
EXTT0=
EXTT1=
EXTT2=
EXTT3=
EXTT4=
EXTT5=
EXTT6=
EXTT7=
PLAYORDER=
